<svg width="22" height="22" viewBox="0 0 22 22" fill="none" xmlns="http://www.w3.org/2000/svg">
<path id="check_circle" d="M9.4 15.9L17 8.3L15.15 6.45L9.4 12.2L6.5 9.3L4.65 11.15L9.4 15.9ZM10.8 21.6C9.306 21.6 7.902 21.3165 6.588 20.7495C5.274 20.1825 4.131 19.413 3.159 18.441C2.187 17.469 1.4175 16.326 0.8505 15.012C0.2835 13.698 0 12.294 0 10.8C0 9.30167 0.284 7.89367 0.852 6.576C1.42 5.25817 2.19083 4.11192 3.1645 3.13725C4.13817 2.16242 5.28117 1.39583 6.5935 0.8375C7.90583 0.279167 9.308 0 10.8 0C12.2982 0 13.706 0.279167 15.0235 0.8375C16.3412 1.39583 17.4875 2.1625 18.4625 3.1375C19.4375 4.1125 20.2042 5.259 20.7625 6.577C21.3208 7.89517 21.6 9.3035 21.6 10.802C21.6 12.3007 21.3208 13.7042 20.7625 15.0125C20.2042 16.3208 19.4376 17.4618 18.4628 18.4355C17.4881 19.4092 16.3418 20.18 15.024 20.748C13.7063 21.316 12.2983 21.6 10.8 21.6Z" fill="#223645"/>
</svg>
