<svg width="48" height="48" viewBox="0 0 48 48" fill="none" xmlns="http://www.w3.org/2000/svg">
<g id="Component 2">
<mask id="mask0_127_502" style="mask-type:alpha" maskUnits="userSpaceOnUse" x="0" y="0" width="48" height="48">
<rect id="Bounding box" width="48" height="48" fill="#D9D9D9"/>
</mask>
<g mask="url(#mask0_127_502)">
<path id="dry_cleaning" d="M13.6555 44.86V32.2415H10.16C8.7873 32.2415 7.6138 31.7764 6.63947 30.846C5.66547 29.9157 5.17847 28.775 5.17847 27.424C5.17847 26.3604 5.44213 25.3699 5.96947 24.4525C6.49713 23.5352 7.25263 22.8732 8.23597 22.4665L22.2565 16.59V14.844C20.9645 14.4987 19.9285 13.802 19.1485 12.754C18.3685 11.7057 17.9785 10.5084 17.9785 9.16204C17.9785 7.45071 18.5705 6.01721 19.7545 4.86154C20.9388 3.70621 22.385 3.12854 24.093 3.12854C25.762 3.12854 27.1923 3.70621 28.384 4.86154C29.5756 6.01721 30.1715 7.45071 30.1715 9.16204H26.488C26.488 8.51237 26.2488 7.96854 25.7705 7.53054C25.2921 7.09287 24.7313 6.87404 24.088 6.87404C23.4393 6.87404 22.8771 7.09487 22.4015 7.53654C21.9258 7.97787 21.688 8.51771 21.688 9.15604C21.688 9.86804 21.9338 10.4574 22.4255 10.924C22.9171 11.3907 23.5026 11.624 24.182 11.624C24.666 11.624 25.094 11.8039 25.466 12.1635C25.838 12.5232 26.024 12.9554 26.024 13.46V16.5425L39.814 22.4665C40.7946 22.8739 41.5495 23.5365 42.0785 24.4545C42.6071 25.3725 42.8715 26.3639 42.8715 27.4285C42.8715 28.7759 42.382 29.9149 41.403 30.8455C40.4236 31.7762 39.2655 32.2415 37.9285 32.2415H34.4325V44.86H13.6555ZM10.163 28.4955H13.6555V26.1455H34.4325V28.4955H37.911C38.1883 28.4955 38.4725 28.3894 38.7635 28.177C39.0545 27.9647 39.2 27.697 39.2 27.374C39.2 27.0694 39.1186 26.7984 38.956 26.561C38.7933 26.324 38.5833 26.141 38.326 26.012L24.188 19.738L9.74997 26.0115C9.4913 26.1452 9.27863 26.3299 9.11197 26.5655C8.9453 26.8012 8.86197 27.0525 8.86197 27.3195C8.86197 27.6532 8.99013 27.9327 9.24647 28.158C9.5028 28.383 9.8083 28.4955 10.163 28.4955Z" fill="black"/>
</g>
</g>
</svg>
