<svg width="48" height="48" viewBox="0 0 48 48" fill="none" xmlns="http://www.w3.org/2000/svg">
<g id="Component 2">
<mask id="mask0_127_510" style="mask-type:alpha" maskUnits="userSpaceOnUse" x="0" y="0" width="48" height="48">
<rect id="Bounding box" width="48" height="48" fill="#D9D9D9"/>
</mask>
<g mask="url(#mask0_127_510)">
<path id="sports_and_outdoors" d="M20.4305 40.6444L21.224 37.7399C21.3827 37.3003 21.6083 36.9034 21.901 36.5494C22.1933 36.1954 22.5897 36.0058 23.09 35.9804L29.7345 35.5044C30.2332 35.4711 30.6737 35.5671 31.056 35.7924C31.438 36.0178 31.7122 36.3471 31.8785 36.7804L32.568 38.7564C33.9477 37.9058 35.2025 36.9164 36.3325 35.7884C37.4625 34.6608 38.3705 33.3779 39.0565 31.9399L38.5565 31.5349C38.1312 31.2716 37.8332 30.9388 37.6625 30.5364C37.4919 30.1341 37.4435 29.7136 37.5175 29.2749L39.0065 22.7119C39.0585 22.2579 39.2604 21.8964 39.612 21.6274C39.964 21.3584 40.3542 21.2078 40.7825 21.1754C40.6319 20.3078 40.411 19.4453 40.12 18.5879C39.8294 17.7306 39.4732 16.8713 39.0515 16.0099C38.8042 16.2099 38.5035 16.3036 38.1495 16.2909C37.7955 16.2779 37.4599 16.1548 37.1425 15.9214L31.53 12.6374C31.1627 12.4194 30.8995 12.0884 30.7405 11.6444C30.5815 11.2008 30.5314 10.7676 30.59 10.3449L31.04 8.54692C29.9464 8.01125 28.8017 7.62042 27.606 7.37442C26.41 7.12842 25.1962 7.00542 23.9645 7.00542C23.4615 7.00542 22.95 7.01175 22.43 7.02442C21.91 7.03708 21.3914 7.07675 20.874 7.14342L22.5975 10.7419C22.8152 11.1859 22.8553 11.6379 22.718 12.0979C22.5807 12.5576 22.312 12.9533 21.912 13.2849L16.9495 17.6969C16.5565 17.9309 16.1163 18.0709 15.629 18.1169C15.1417 18.1629 14.6892 18.0566 14.2715 17.7979L9.54351 14.9834C8.69285 16.3678 8.05718 17.8233 7.63651 19.3499C7.21585 20.8766 7.00551 22.4166 7.00551 23.9699C7.00551 24.6179 7.07152 25.5326 7.20352 26.7139L11.8845 26.2359C12.3585 26.1706 12.7958 26.2778 13.1965 26.5574C13.5975 26.8371 13.9098 27.1853 14.1335 27.6019L16.555 33.7624C16.7757 34.1904 16.8332 34.6004 16.7275 34.9924C16.6218 35.3844 16.3994 35.7441 16.06 36.0714L14.1335 37.9229C15.0645 38.5706 16.0517 39.1194 17.095 39.5694C18.1383 40.0194 19.2502 40.3778 20.4305 40.6444ZM24.4155 31.4809C23.9202 31.5046 23.4824 31.4036 23.102 31.1779C22.7217 30.9519 22.432 30.6254 22.233 30.1984L19.186 23.5424C19.0113 23.1124 19.001 22.6743 19.155 22.2279C19.309 21.7816 19.586 21.4303 19.986 21.1739L25.388 16.4479C25.7134 16.1303 26.1127 15.9779 26.586 15.9909C27.059 16.0036 27.5144 16.1266 27.952 16.3599L33.8575 19.8774C34.2475 20.1004 34.5279 20.4301 34.6985 20.8664C34.8692 21.3031 34.9045 21.7503 34.8045 22.2079L33.3325 29.2054C33.2002 29.6091 32.9509 29.9581 32.5845 30.2524C32.2182 30.5468 31.8425 30.7094 31.4575 30.7404L24.4155 31.4809ZM23.9825 44.8599C21.0982 44.8599 18.386 44.3139 15.846 43.2219C13.3057 42.1299 11.0987 40.6444 9.22502 38.7654C7.35168 36.8868 5.86918 34.6761 4.77751 32.1334C3.68585 29.5908 3.14001 26.8801 3.14001 24.0014C3.14001 21.1231 3.68585 18.4124 4.77751 15.8694C5.86918 13.3261 7.35168 11.1148 9.22502 9.23542C11.0987 7.35575 13.3058 5.86792 15.8465 4.77192C18.3872 3.67625 21.0997 3.12842 23.984 3.12842C26.879 3.12842 29.5998 3.67542 32.1465 4.76942C34.6935 5.86375 36.9078 7.34992 38.7895 9.22792C40.6715 11.1063 42.1557 13.3194 43.242 15.8674C44.3284 18.4151 44.8715 21.1301 44.8715 24.0124C44.8715 26.8944 44.324 29.6069 43.229 32.1499C42.134 34.6929 40.6495 36.9049 38.7755 38.7859C36.9012 40.6673 34.69 42.1499 32.142 43.2339C29.5944 44.3179 26.8745 44.8599 23.9825 44.8599Z" fill="black"/>
</g>
</g>
</svg>
