<svg width="49" height="48" viewBox="0 0 49 48" fill="none" xmlns="http://www.w3.org/2000/svg">
<g id="Component 2">
<mask id="mask0_127_526" style="mask-type:alpha" maskUnits="userSpaceOnUse" x="0" y="0" width="49" height="48">
<rect id="Bounding box" x="0.5" width="48" height="48" fill="#D9D9D9"/>
</mask>
<g mask="url(#mask0_127_526)">
<path id="wb_incandescent" d="M22.5805 45.251V38.635H26.4455V45.251H22.5805ZM3.59351 26.264V22.399H10.1835V26.264H3.59351ZM38.8165 26.264V22.399H45.4065V26.264H38.8165ZM37.801 40.401L33.1925 35.7925L35.948 33.037L40.5445 37.6455L37.801 40.401ZM11.199 40.401L8.45551 37.6455L13.064 33.037L15.8195 35.7925L11.199 40.401ZM24.5065 34.073C21.8308 34.073 19.5395 33.123 17.6325 31.223C15.7252 29.323 14.7715 27.0333 14.7715 24.354C14.7715 22.6573 15.1157 21.1293 15.804 19.77C16.492 18.4103 17.494 17.2758 18.81 16.3665V5.3335H30.19V16.363C31.4647 17.278 32.4563 18.415 33.165 19.774C33.874 21.1327 34.2285 22.66 34.2285 24.356C34.2285 27.034 33.2772 29.323 31.3745 31.223C29.4718 33.123 27.1825 34.073 24.5065 34.073ZM22.4 15.04C22.75 14.9497 23.1 14.8787 23.45 14.827C23.8 14.7753 24.15 14.7495 24.5 14.7495C24.85 14.7495 25.2 14.7753 25.55 14.827C25.9 14.8787 26.25 14.9497 26.6 15.04V8.924H22.4V15.04ZM24.4865 30.2075C26.1078 30.2075 27.499 29.6398 28.66 28.5045C29.8207 27.3692 30.401 25.9907 30.401 24.369C30.401 22.7403 29.8232 21.3477 28.6675 20.191C27.5118 19.034 26.1233 18.4555 24.502 18.4555C22.8807 18.4555 21.4998 19.0318 20.3595 20.1845C19.2192 21.3368 18.649 22.7253 18.649 24.35C18.649 25.9747 19.2165 27.357 20.3515 28.497C21.4865 29.6373 22.8648 30.2075 24.4865 30.2075Z" fill="black"/>
</g>
</g>
</svg>
